<svg xmlns="http://www.w3.org/2000/svg" width="64" height="64" viewBox="0 0 64 64" role="img" aria-label="CogniFold crayon brain glyph">
  <defs>
    <filter id="wax" x="-20%" y="-20%" width="140%" height="140%">
      <feTurbulence type="fractalNoise" baseFrequency="0.06" numOctaves="2" seed="4" result="t"/>
      <feDisplacementMap in="SourceGraphic" in2="t" scale="1.6" xChannelSelector="R" yChannelSelector="G"/>
    </filter>
  </defs>
  <rect width="64" height="64" rx="13" fill="#ece0c4"/>
  <g filter="url(#wax)" transform="translate(32,33)">
    <path d="M-20 8 Q-22 -10 -13 -16 Q-4 -22 0 -21 Q9 -23 17 -16 Q23 -10 21 9 Q14 15 6 12 Q-2 16 -12 12 Q-18 15 -20 8 Z"
          fill="rgba(176,138,62,0.18)" stroke="#2b2118" stroke-width="2.4" stroke-linejoin="round"/>
    <path d="M-12 -6 Q-2 -12 8 -5 M-13 4 Q-3 -1 9 5 M-2 -16 Q-3 -2 -1 12"
          fill="none" stroke="#2b2118" stroke-width="1.4" stroke-opacity="0.7"/>
    <circle cx="-9" cy="-2" r="2.6" fill="#9c4a2f"/>
    <circle cx="6" cy="3" r="2.6" fill="#9c4a2f"/>
  </g>
</svg>
