<svg xmlns="http://www.w3.org/2000/svg" width="64" height="64" viewBox="0 0 64 64" role="img" aria-label="CogniFold neural brain glyph">
  <rect width="64" height="64" rx="14" fill="#1d1d1f"/>
  <g transform="translate(32,33)" stroke-linejoin="round">
    <path d="M-20 8 Q-22 -10 -13 -16 Q-4 -22 0 -21 Q9 -23 17 -16 Q23 -10 21 9 Q14 15 6 12 Q-2 16 -12 12 Q-18 15 -20 8 Z"
          fill="rgba(10,132,255,0.16)" stroke="#5ac8fa" stroke-width="2.2"/>
    <path d="M-12 -6 Q-2 -12 8 -5 M-13 4 Q-3 -1 9 5 M-2 -16 Q-3 -2 -1 12"
          fill="none" stroke="#5ac8fa" stroke-width="1.2" stroke-opacity="0.6"/>
    <circle cx="-9" cy="-2" r="2.6" fill="#0a84ff"/>
    <circle cx="6" cy="3" r="2.6" fill="#0a84ff"/>
    <line x1="-9" y1="-2" x2="6" y2="3" stroke="#0a84ff" stroke-width="1" stroke-opacity="0.7"/>
  </g>
</svg>
